<svg width="20" height="21" viewBox="0 0 20 21" fill="none" xmlns="http://www.w3.org/2000/svg">
    <path d="M11.7322 20.375H8.02598C7.79376 20.375 7.5685 20.2957 7.38757 20.15C7.20663 20.0044 7.08089 19.8012 7.0312 19.5743L6.61679 17.6549C6.06397 17.4126 5.53977 17.1095 5.05385 16.7513L3.18342 17.3473C2.96203 17.4179 2.72314 17.4107 2.50644 17.3267C2.28974 17.2428 2.10826 17.0872 1.99213 16.8858L0.134933 13.6757C0.0200243 13.4741 -0.0231095 13.2395 0.0125884 13.0102C0.0482864 12.7809 0.160702 12.5705 0.331445 12.4135L1.78238 11.0891C1.7164 10.4892 1.7164 9.8838 1.78238 9.28387L0.331445 7.96255C0.160461 7.80543 0.0478916 7.59486 0.0121879 7.36534C-0.0235159 7.13583 0.0197636 6.90098 0.134933 6.6993L1.98806 3.48718C2.10418 3.28579 2.28567 3.1302 2.50237 3.04625C2.71907 2.96231 2.95795 2.95505 3.17935 3.02569L5.04978 3.62166C5.29822 3.43828 5.55684 3.26713 5.82361 3.11228C6.08122 2.96762 6.34595 2.8362 6.61679 2.71904L7.03222 0.801756C7.08167 0.574776 7.20717 0.371526 7.38792 0.225703C7.56866 0.07988 7.79379 0.000244465 8.02598 0H11.7322C11.9644 0.000244465 12.1895 0.07988 12.3703 0.225703C12.551 0.371526 12.6765 0.574776 12.726 0.801756L13.1455 2.72006C13.6976 2.96382 14.2216 3.2668 14.7084 3.62369L16.5799 3.02772C16.8011 2.95735 17.0398 2.96474 17.2563 3.04867C17.4727 3.13261 17.6541 3.28805 17.7701 3.48922L19.6233 6.70134C19.8595 7.11597 19.778 7.64062 19.4268 7.96357L17.9758 9.28794C18.0418 9.88787 18.0418 10.4932 17.9758 11.0932L19.4268 12.4175C19.778 12.7415 19.8595 13.2651 19.6233 13.6798L17.7701 16.8919C17.654 17.0933 17.4725 17.2489 17.2558 17.3328C17.0391 17.4168 16.8002 17.424 16.5789 17.3534L14.7084 16.7574C14.2229 17.1154 13.699 17.4181 13.1465 17.66L12.726 19.5743C12.6763 19.8011 12.5507 20.0041 12.37 20.1497C12.1893 20.2953 11.9643 20.3748 11.7322 20.375ZM9.87503 6.1125C8.79486 6.1125 7.75892 6.54183 6.99512 7.30604C6.23133 8.07025 5.80223 9.10674 5.80223 10.1875C5.80223 11.2683 6.23133 12.3047 6.99512 13.069C7.75892 13.8332 8.79486 14.2625 9.87503 14.2625C10.9552 14.2625 11.9911 13.8332 12.7549 13.069C13.5187 12.3047 13.9478 11.2683 13.9478 10.1875C13.9478 9.10674 13.5187 8.07025 12.7549 7.30604C11.9911 6.54183 10.9552 6.1125 9.87503 6.1125Z" fill="#FFFEFC"/>
</svg>
