<svg width="24" height="27" viewBox="0 0 24 27" fill="none" xmlns="http://www.w3.org/2000/svg">
    <path d="M20.5 18.6923V18.9112L20.6609 19.0597L23.5 21.6805V22.3462H0.5V21.6805L3.33914 19.0597L3.5 18.9112V18.6923V11.7692C3.5 7.70844 5.8105 4.39188 9.85683 3.50692L10.25 3.42093V3.01846V2.07692C10.25 1.24076 10.9927 0.5 12 0.5C13.0073 0.5 13.75 1.24076 13.75 2.07692V3.01846V3.42063L14.1428 3.50684C18.1748 4.39175 20.5 7.7227 20.5 11.7692V18.6923Z" fill="black" stroke="black"/>
    <path d="M16.467 22.8448C16.1983 24.8709 14.32 26.5 12 26.5C10.7955 26.5 9.6468 26.0542 8.80518 25.2706C8.09415 24.6086 7.65202 23.7528 7.53273 22.8448H16.467Z" fill="black" stroke="black"/>
</svg>
